<svg xmlns="http://www.w3.org/2000/svg" version="1.0" viewBox="0 0 1291 1291"><path d="M625.7 407.6c-4.9.7-13.1 2.5-18.3 3.9l-9.5 2.5-4.2-2.1c-3.5-1.8-5.2-2.1-11-1.6-8.5.7-14.6 3.5-40.5 18.4-33.9 19.6-37.9 27-28.7 53.3 2.1 5.8 7.1 20.4 11.1 32.5 4.1 12.1 7.9 22.9 8.5 24.1.6 1.1 2.9 3.3 5.2 4.7 4.8 3.2 12 3.6 16.8 1.1 1.7-.8 3.2-1.4 3.4-1.2.1.2.4 9.7.6 21.2l.4 21-5.8 3.4c-3.3 1.9-6.2 3-6.6 2.6-.4-.5-2.5-5.3-4.5-10.6-2.1-5.4-4.4-10.2-5.1-10.8-2.4-2-24.6-7.2-43.9-10.3-6.1-1-10.6 2.3-10.6 7.6 0 3.8 3.2 5.7 12.1 7.3 13.7 2.4 27.3 5.2 30 6.3 2.1.8 3.3 2.7 5.8 9.1 1.7 4.5 3.1 8.6 3.1 9 0 .5-4.4 4.7-9.7 9.3-34.3 29.6-65.6 70.4-78.2 101.7l-2.6 6.5-.3 44.2-.3 44.3H433v-11.5c0-11.1-.1-11.7-2.6-14.1-1.9-2-3.1-2.4-5.2-1.9-5.1 1.2-5.7 2.7-6.2 15.3l-.5 11.7h-25.9l.2-139c.1-76.5.2-142.3.2-146.3V512h16.8c14.8 0 17.1-.2 18.5-1.8 1.3-1.4 1.6-5.2 1.9-22 .3-20.4.3-20.4-2.1-22.3-3.2-2.6-6.7-2.4-9.6.6-2.4 2.3-2.5 2.8-2.5 17V498h-15.9c-14.5 0-16.1.2-18.5 2.1l-2.6 2v29.5c0 16.2-.3 29.4-.7 29.4-.5 0-3-.7-5.8-1.6-16.5-5-32.3-9.4-34.1-9.4-1.2 0-3.3.9-4.8 2.1l-2.6 2v130.4c0 126.8.1 130.3 1.9 132.6l1.9 2.4 41.6.3 41.6.3-.2 18.2-.3 18.2-22.2.5-22.2.5-3.5 3.4c-2 1.9-4.1 5-4.7 6.9-2.8 8.6 2 19.7 10.6 24.1l4.9 2.6 258.5.3c282.8.2 264.9.6 272.1-5.4 4.3-3.7 7-9.4 7-15s-2-10-6.5-14.4l-3.5-3.4v-15.2c0-8.3.3-16.4.6-18l.5-2.9h30.4l8.8-4.2c23.1-11.1 34.1-36.2 25.7-58.6-2.9-7.6-12.6-18.2-21-22.6l-6-3.2v-29.7c.1-48.5-.8-108.6-1.5-110.5-1.7-4.1-6-5-21.9-4.6l-15.1.4-.5-76.6c-.4-62.9-.7-76.9-1.9-78.2-1.6-2-8-2.3-10.2-.5-.9.7-4.4 5.1-7.9 9.8-3.5 4.7-9.2 12-12.8 16.2l-6.4 7.8h-18.3c-15.9 0-18.5.2-20.4 1.7-1.8 1.6-2.4 4.5-4.7 21.8-1.4 11-2.8 22.3-3.1 25.2l-.6 5.1-12.2.4c-10.3.2-12.6.6-14.3 2.2-2.5 2.2-3.5 7.1-5.7 28.1-2.4 22.3-1.7 20.9-10.1 21.3-7.8.3-10.4 2.1-10.4 7.2 0 4.9 2.4 6.3 9.5 5.5 5.7-.6 6.3-.4 9.9 2.4 5.6 4.5 17.3 17.7 22.3 25.3 4.7 7.3 7.6 8.9 11.9 6.9 1.4-.6 2.8-2.1 3.3-3.3 1.7-4.8-.9-9-17.9-29.3l-7.6-9 1.9-20.5c1.1-11.3 2.1-21.1 2.3-21.9.4-1.1 2.4-1.3 10.9-.8 5.7.3 11.9.1 13.9-.4 4.5-1.2 4.7-1.8 8.6-30.4 1.7-12 3.2-22 3.4-22.2.1-.1 7.6-.6 16.7-.9 9-.4 17.2-1.1 18.1-1.6 1-.4 4.9-5.2 8.7-10.6 3.8-5.4 7.5-10.3 8.2-10.9 1.2-1 1.4 20.8 1.1 135.5-.1 75.2-.4 137.2-.6 137.8-.2.6-4.1 1.9-8.7 2.9s-12.3 3-17.2 4.5l-8.8 2.8-2.5-4c-1.4-2.2-3.4-6-4.4-8.3-6.2-14.6-30.7-53.2-44.5-70.5-18.5-23-43.7-48.4-58.7-59.3l-5.8-4.2.3-5.5c.2-3 1-14.2 1.8-24.8 1.3-18.7 1.4-19.3 3.4-18.6 1.1.4 4.5.9 7.6 1.1 8.6.7 15.2-3.3 19.4-11.6.9-1.8 6.2-17.1 11.7-34 9.8-29.9 10-30.8 9.6-38.2-.8-14-5.4-18.7-34.1-34.6-8.4-4.6-20.3-10.9-26.6-14-10-5-12.1-5.7-17.6-5.7-5.1-.1-6.9.3-9.5 2.2l-3.2 2.4-7.7-2.1c-13.6-3.7-26.5-5.1-45.6-5-9.9.1-22 .7-26.8 1.5zm57.8 14.9c5 .9 11.3 2.2 14.1 3l5.1 1.5 4.1 8.8c5.8 12.5 9.9 25.3 11.2 35.2 2.5 18.8 7.4 39 11.6 48.6 2.2 4.9 2.4 6.8 2.4 19.8v14.3l-4.1 1.8c-4.7 2.2-8 5.8-11.5 12.7-2.4 4.7-4.4 5.6-4.4 2 0-2.8-7.3-14.3-10.7-16.9-6.1-4.7-7.9-1.3-4.2 7.9 2 4.9 2.1 6.6 1.6 22.3-.6 20.9-2 25.9-8.1 28.9-5.9 2.9-12.3 1.2-23.4-6-4.8-3.1-9-6.2-9.4-6.8-.4-.6-.8-5.2-.8-10.3v-9.2l6.8-4.4c11.3-7.5 17.2-15.4 17.2-23.4 0-10.8-14-17.3-34.3-16-11.1.7-15.7 2-19.7 5.3-6.1 5.2-5.9 15.8.5 24.5 1.8 2.6 6.5 6.7 10.4 9.3l7.1 4.8v20.7l-7.6 5.2c-12.4 8.4-18.6 9.9-23.8 5.8-3.5-2.7-5-8.7-7.6-29.4-2.5-20.1-3-21.9-7.6-27.9-3.4-4.5-3.6-4.6-9-4.6-4.3 0-6.3-.5-8.7-2.4-1.8-1.3-4.1-2.6-5.2-2.8-1.9-.3-2-1-1.7-11.3.2-7.6 1-13.9 2.7-20.5 2.9-11.6 6.9-30.8 8.5-41.4 1.5-9.7 3.4-15.5 10.6-31.2l5.7-12.3 6.7-2c6.1-1.9 20.4-4.4 30.5-5.5 8.1-.8 36.3.3 45 1.9zm49.3 6.4c19.5 9.9 36.9 19.4 41.6 22.8 5 3.5 8.6 9.6 8.6 14.3 0 1.7-3.6 14-8 27.3s-8.7 26.7-9.6 29.9c-2 7.1-4.4 9.8-8.8 9.8-3.5 0-7.2-3.1-9.9-8.6-4-7.9-9.9-30.7-14.1-54.4-1.6-9.3-4.1-18.4-8-29.2-3.1-8.7-5.6-16.2-5.6-16.8 0-1.8 2-1.1 13.8 4.9zM586 425.4c0 .7-2.2 6-4.9 11.8-6.1 12.7-8 19.5-13.1 46.3-6.1 31.6-10.3 44-16 47-3.9 2-5.7 1.9-7.1-.6-.6-1.1-5.5-15.2-11-31.2-10.2-30.1-11.3-35.2-8.5-40.5 2.4-4.5 6.4-7.5 23.1-16.9 19.9-11.3 27.5-15.1 32.3-16.2 5.2-1.3 5.2-1.3 5.2.3zm-4.3 134.7c8.6 4.9 8.9 5.8 11.8 30.8 1.9 16.3 3.9 22.9 9.1 29 9.5 11 20.8 11.8 36.6 2.4 12-7.1 14.5-7.4 22.3-2.8 11.9 7 16.1 8.6 22.8 8.7 7.6 0 12.2-1.8 18.1-7.2 6-5.5 8.3-10.8 10.7-23.7 1.7-9.4 2.8-12.2 5-12.3.3 0 1.8-2.2 3.3-5 3.2-5.9 7.5-11.2 8.5-10.6.4.3-.1 7.8-1.1 16.8s-2.1 20.7-2.4 26l-.7 9.6-5.5 4.9c-11.4 9.8-16.7 13.8-31.8 23.9-17.6 11.8-30.6 18.4-36.2 18.4-2 0-6.5-1.3-10.1-3-12.1-5.8-38.8-25.9-56.5-42.7l-9.8-9.2-.3-11.8c-.2-6.5-.7-19.3-1.1-28.6-.5-12.9-.3-16.7.6-16.7.7 0 3.7 1.4 6.7 3.1zM355.4 569c14.6 4.5 22.6 8.1 23.1 10.3.3 1.2.4 52.4.3 113.7l-.3 111.5-16.7.3-16.8.2v-9.2c.1-5.1 0-58.6-.1-118.8-.1-60.2-.1-109.9 0-110.3 0-.5.9-.6 1.9-.3.9.3 4.8 1.5 8.6 2.6zm205.3 36.7c-.3 3.8-1.5 9.5-2.6 12.7-2.8 7.9-2.6 12.1.6 18.5 5.4 11.1 30.2 34.2 51.1 47.8 11.7 7.7 12.4 8.6 14.2 16.8 4.3 19.8 4.9 24.1 3.9 29-1.8 9.5-8.7 50-10.5 62.2l-1.9 12.3H544v-31.9c0-17.9-.4-33.1-1-34.5-.5-1.4-2.3-3.2-4-4.1-2.8-1.5-4.1-1.5-13.8-.1-5.9.8-14 1.8-18 2.2-5.6.5-8 1.2-10 2.9l-2.7 2.3v62.7l-18.7.3-18.8.2v-33.7c0-18.6.5-39 1-45.3.9-10.5 1.3-12.1 5.4-20.6 11.6-24.1 41.5-61.8 65.1-82.1 12.2-10.6 30.2-24.3 31.8-24.3.6 0 .8 2.4.4 6.7zM932.5 665v63.5l-12.3.3-12.2.3.2-63.3.3-63.3 5.5-.6c3-.3 8.4-.6 12-.5l6.5.1V665zm-178.9-43.7c35.1 30.9 66 73.2 92.6 126.7l9.7 19.5.3 18.5.3 18.5-35.2.3-35.3.2v-58.8l-3.1-2.6c-1.7-1.4-4.3-2.6-5.7-2.6-2.9 0-11.5 4.4-25.7 13.3-13.9 8.5-12.9 6.4-13.3 30.3l-.3 20.4H675l-.4-2.3c-.2-1.2-1.4-12.8-2.6-25.7-1.2-12.9-3-29.4-4.1-36.6-1.9-13-1.9-13.2 0-17.5 1.1-2.4 2.4-7.3 3-10.9.7-3.6 1.4-7.5 1.6-8.7.4-1.5 4.6-4.7 13.8-10.3 36.7-22.7 57.7-43.6 57.7-57.4 0-2.5-1.1-8.5-2.5-13.2-2.6-9.1-3.1-12.4-1.6-12.4.5 0 6.6 5.1 13.7 11.3zm-174.5 15.4c9.1 8.3 19.3 16.6 32.3 26.4 14.4 10.8 13.3 9.6 11.3 11.6-1.5 1.5-2 1.4-7.4-2.2-14.7-9.7-33.7-26.1-41.5-35.8-3.8-4.8-4.6-6.7-3-6.7.5 0 4.2 3 8.3 6.7zm150.2 2.8c-4.8 8.5-34.7 33.3-50.1 41.4-2.5 1.3-5.2.1-5.2-2.4 0-.7 5.5-5 12.3-9.6 15.7-10.6 28.7-20.2 36.1-26.7 5.4-4.7 8.7-6 6.9-2.7zm-90.5 42.4c4.8 2.4 13.3 3.3 19 2 2.4-.5 4.6-.8 4.7-.7.2.2.5 1.8.7 3.7.3 3.3.2 3.4-5.2 4.8-6.8 1.8-17.9 1.2-21.5-1.1-2.1-1.4-2.5-2.4-2.5-6.1 0-2.5.2-4.5.5-4.5s2.2.8 4.3 1.9zm10.8 24.1h7.4v3.5c0 4.1-2 5.5-9.1 6.1l-5 .5-1.9-4.3c-2.4-5.3-2.5-7.2-.4-6.4.9.3 4.9.6 9 .6zm4.2 33.2c1.9 16.3 6.2 60.6 6.2 64 0 1.6-1.4 1.8-15 1.8-12.7 0-15-.2-15-1.5 0-4.4 8.7-57.7 11.6-71.3.4-1.9 1-2.2 5.8-2.2h5.4l1 9.2zm287.3 6.6c14.4 5.1 20.9 13.7 20.9 27.6 0 12.8-7.8 24.8-19.9 30.4-6.8 3.2-19.8 4.1-27.1 1.9l-4.5-1.3.1-7.5c.1-13.5 7.6-25.2 19-29.4 6-2.2 7.4-3.2 8.5-6.3.6-1.6.4-3.2-.6-5.2-2.8-5.4-8.8-5.2-18.1.8-13.8 9-22 22.7-23.2 39.1l-.7 8.6h-24l-.5-19c-.5-16.8-.8-19.6-2.8-23.9-1.2-2.7-2.2-5.5-2.2-6.2 0-1.4 6.7-3.7 21-7.3 21.2-5.2 43.1-6.1 54.1-2.3zM529 775.5v28.2c0 .5-4.4.9-9.8 1.1l-9.9.3-.6-8.8c-.6-9.4.1-44.4.9-45.2.4-.5 13.9-2.7 17.7-3 1.6-.1 1.7 1.8 1.7 27.4zm243.8 6.6-.3 22.4-9.6.3-9.6.3-.5-6.8c-.2-3.7-.2-11.7.1-17.6l.6-10.8 9-5.8c5-3.2 9.3-5.6 9.8-5.2.4.4.6 10.8.5 23.2zm121.8 39c.3.6.3 8.9-.1 18.5l-.7 17.4-230.7-.2-230.6-.3-.3-14c-.1-7.7 0-15.9.3-18.3l.6-4.2h230.4c165.8 0 230.6.3 231.1 1.1zm9.1 51.6c.3.7-.9 2.6-2.5 4.3l-3 3H640.5c-173.7 0-258.3-.3-259.5-1-3-1.6-4.4-4.8-2.9-6.6 1-1.2 36.3-1.4 263.2-1.2 208 .2 262.1.6 262.4 1.5z"/><path d="M684.3 460.5c-2.7 1.1-3.3 2-3.3 4.4 0 3.7 1.6 4.6 9.2 5.5 3.2.3 8.2 1.5 11.2 2.7 6.4 2.3 9.6 1.5 9.6-2.6 0-2.8-5.1-5.9-15.9-9.4-7.5-2.4-6.7-2.4-10.8-.6zm-78.4 1.9c-13.4 4.7-17.5 7.8-15.3 11.3 1.6 2.6 4.4 2.7 9.9.3 2.7-1.2 8.3-2.5 12.4-3.1 5.1-.6 8-1.5 8.9-2.6 1.7-2.3 1.5-3-1.3-5.8-3-3.1-6.1-3.1-14.6-.1zm3.6 14.8c-10.5 3.8-13.8 15-6.7 22.6 5.9 6.3 15.8 6.7 21.1.7 5.7-6.6 5.9-14.5.4-19.7-4.8-4.5-9.1-5.6-14.8-3.6zm74.4 1.1c-5.6 4.2-7.5 13.6-3.9 19.4 5.5 9.1 16.6 9.1 23.4-.1 4.5-5.9 1.5-15.5-5.8-19-4-1.9-11.4-2.1-13.7-.3zm-41.2 27.8c-3.7.5-10.2 2.3-14.4 4.1-6.2 2.6-9.3 4.8-16.5 11.6-8.8 8.5-10.8 12.2-7.2 13.6 2.4.9 5.2-1 14.9-10.3 5-4.8 11.1-9.7 13.7-10.9 10.3-4.8 26.8-4.9 39.3-.2 4.8 1.9 7.9 4.2 16.1 12.2 5.5 5.4 10.8 9.8 11.6 9.8 2.6 0 4.3-2.8 3.2-5.4-1.4-3.4-17.2-17.6-21.9-19.7-10.4-4.6-26.2-6.6-38.8-4.8zM461.2 545c-3.1 1.3-4.4 5.5-4 12.4.4 4.6.9 6.3 2.7 7.7 3.2 2.6 6.3 2.4 9.1-.6 2-2.1 2.3-3.4 2.1-9.2-.1-4.9-.6-7.3-1.9-8.4-2.3-2.3-5.2-2.9-8-1.9zM442 572.8c-2 1.6-2.2 2.6-2.3 15.9-.1 12.5.1 14.4 1.7 16.2 2.3 2.5 7.8 2.8 10 .5 1.3-1.2 1.6-4.1 1.6-15v-13.6l-2.9-2.9c-3.4-3.4-5-3.6-8.1-1.1zm18.2 60.1c-14.8 13.4-18.2 17.4-18.2 21.4 0 6.1 6 8.7 11.6 5 4.9-3.1 25.4-26.3 25.4-28.6 0-3.7-2.8-6.7-6.1-6.7-2.3 0-5 1.9-12.7 8.9zm372.2-.8c-3.3 3.7-3.2 19.9.2 23.4 2 1.9 6.3 1.9 9.2-.1 2-1.4 2.2-2.3 2.2-11.5 0-8.6-.3-10.2-2-11.9-2.6-2.6-7.2-2.6-9.6.1zm-403.3 37.6c-3.5 3.3-19.1 31.5-19.8 35.8-.7 4.2 3.2 7.8 7.8 7.3 3.1-.3 3.7-.9 7-7.3 2-3.9 6.4-12.4 9.8-18.9 6.5-12.4 7.1-15.5 3.4-18.4-2.6-1.9-5-1.4-8.2 1.5z"/></svg>